<svg width="454" height="268" viewBox="0 0 454 268" fill="none" xmlns="http://www.w3.org/2000/svg">
<g filter="url(#filter0_d_2337_1072)">
<g clip-path="url(#clip0_2337_1072)">
<rect x="14" y="249.564" width="240.564" height="425.884" rx="10.2464" transform="rotate(-90 14 249.564)" fill="white"/>
<g filter="url(#filter1_d_2337_1072)">
<path d="M235.33 55.6318L232.452 27.2252C232.307 25.7935 232.373 24.3482 232.646 22.9355L238.935 -9.50252L237.985 -9.48441C236.829 -9.46241 236.339 -10.9452 237.279 -11.6167C238.143 -12.2343 239.319 -11.4793 239.116 -10.4362L238.935 -9.50252L390.5 -12.3895C417.622 -12.9061 439.886 8.93841 439.886 36.0652L439.886 140.934C439.886 217.603 374.101 277.749 297.739 270.896L262.378 267.722C239.716 265.689 219.686 252.158 209.338 231.894C201.882 217.294 200.11 200.446 204.363 184.614L218.491 132.019C220.182 125.721 220.303 119.104 218.842 112.749L216.845 104.062C214.636 94.4513 218.127 84.425 225.827 78.2649C232.63 72.8221 236.209 64.3 235.33 55.6318Z" fill="#7E92F7"/>
</g>
<g filter="url(#filter2_d_2337_1072)">
<path d="M312.913 39.2255L335.232 -9.89318C346.591 -34.8922 371.515 -50.9434 398.974 -50.9434C436.902 -50.9434 467.933 -20.7422 468.962 17.172L474.164 208.979C475.312 251.296 447.058 288.788 406.063 299.346C380.518 305.925 353.374 301.066 331.697 286.035L292.341 258.744C271.907 244.574 262.203 219.358 267.867 195.144L271.712 178.709C274.534 166.648 283.872 157.183 295.893 154.2C314.367 149.615 325.141 130.394 319.411 112.243L310.254 83.2323C305.678 68.7379 306.625 53.0634 312.913 39.2255Z" fill="#1E1E1E"/>
</g>
<path fill-rule="evenodd" clip-rule="evenodd" d="M388.109 164.546L367.73 164.546L367.73 201.355C369.108 198.459 371.094 195.889 373.552 193.819L373.552 170.343L388.107 170.343C391.966 170.343 395.67 171.871 398.399 174.588C401.127 177.306 402.662 180.992 402.662 184.835C402.662 188.678 401.129 192.364 398.399 195.082C395.67 197.8 391.966 199.327 388.107 199.327C385.383 199.419 382.769 200.406 380.665 202.128C378.562 203.853 377.089 206.219 376.477 208.863C375.862 211.505 376.142 214.277 377.271 216.745C378.4 219.213 380.316 221.241 382.722 222.515L382.722 211.646C382.696 210.099 383.225 208.595 384.211 207.401C385.198 206.207 386.578 205.4 388.107 205.125C389.156 205.125 390.197 205.043 391.221 204.886L404.804 231.935L412.85 231.935L398.082 202.526C399.693 201.627 401.186 200.505 402.515 199.181C406.336 195.375 408.483 190.215 408.483 184.833C408.483 179.452 406.336 174.292 402.515 170.486C398.695 166.683 393.512 164.546 388.109 164.546ZM375.737 172.517L388.109 172.517C391.39 172.517 394.537 173.814 396.857 176.125C399.177 178.435 400.48 181.567 400.48 184.835C400.48 188.103 399.177 191.235 396.857 193.546C394.537 195.857 391.39 197.154 388.109 197.154C385.714 197.154 383.358 197.742 381.247 198.866C379.137 199.989 377.337 201.614 376.006 203.596C374.677 205.577 373.857 207.855 373.622 210.227C373.388 212.599 373.744 214.991 374.661 217.194C375.577 219.396 377.024 221.339 378.875 222.85C380.725 224.363 382.922 225.396 385.269 225.861C387.616 226.326 390.043 226.206 392.334 225.515C394.624 224.824 396.708 223.579 398.4 221.895L401.004 227.079C398.497 229.208 395.506 230.701 392.292 231.428C389.076 232.156 385.732 232.094 382.547 231.251C379.36 230.408 376.428 228.808 373.999 226.588C371.57 224.368 369.719 221.594 368.603 218.505C367.488 215.417 367.141 212.104 367.596 208.852C368.048 205.6 369.288 202.508 371.206 199.837C373.124 197.167 375.664 195.001 378.609 193.524C381.553 192.046 384.814 191.302 388.11 191.356C389.848 191.356 391.514 190.669 392.741 189.446C393.968 188.223 394.659 186.563 394.659 184.833C394.659 183.104 393.968 181.444 392.741 180.221C391.512 178.998 389.847 178.31 388.11 178.31L381.56 178.31L381.56 189.903C379.513 190.448 377.553 191.279 375.739 192.368L375.739 172.517L375.737 172.517ZM407.467 217.878L400.335 203.675C401.947 202.611 403.415 201.345 404.702 199.908C406.534 202.483 407.74 205.448 408.22 208.568C408.7 211.687 408.441 214.876 407.467 217.879L407.467 217.878Z" fill="#7E92F7"/>
</g>
</g>
<defs>
<filter id="filter0_d_2337_1072" x="0.712357" y="0.142548" width="452.46" height="267.139" filterUnits="userSpaceOnUse" color-interpolation-filters="sRGB">
<feFlood flood-opacity="0" result="BackgroundImageFix"/>
<feColorMatrix in="SourceAlpha" type="matrix" values="0 0 0 0 0 0 0 0 0 0 0 0 0 0 0 0 0 0 127 0" result="hardAlpha"/>
<feOffset dy="4.42921"/>
<feGaussianBlur stdDeviation="6.64382"/>
<feComposite in2="hardAlpha" operator="out"/>
<feColorMatrix type="matrix" values="0 0 0 0 0 0 0 0 0 0 0 0 0 0 0 0 0 0 0.25 0"/>
<feBlend mode="normal" in2="BackgroundImageFix" result="effect1_dropShadow_2337_1072"/>
<feBlend mode="normal" in="SourceGraphic" in2="effect1_dropShadow_2337_1072" result="shape"/>
</filter>
<filter id="filter1_d_2337_1072" x="202.096" y="-12.3984" width="240.925" height="286.962" filterUnits="userSpaceOnUse" color-interpolation-filters="sRGB">
<feFlood flood-opacity="0" result="BackgroundImageFix"/>
<feColorMatrix in="SourceAlpha" type="matrix" values="0 0 0 0 0 0 0 0 0 0 0 0 0 0 0 0 0 0 127 0" result="hardAlpha"/>
<feOffset dx="1.56719" dy="1.56719"/>
<feGaussianBlur stdDeviation="0.783596"/>
<feComposite in2="hardAlpha" operator="out"/>
<feColorMatrix type="matrix" values="0 0 0 0 0 0 0 0 0 0 0 0 0 0 0 0 0 0 0.25 0"/>
<feBlend mode="normal" in2="BackgroundImageFix" result="effect1_dropShadow_2337_1072"/>
<feBlend mode="normal" in="SourceGraphic" in2="effect1_dropShadow_2337_1072" result="shape"/>
</filter>
<filter id="filter2_d_2337_1072" x="266.271" y="-50.9434" width="211.061" height="356.293" filterUnits="userSpaceOnUse" color-interpolation-filters="sRGB">
<feFlood flood-opacity="0" result="BackgroundImageFix"/>
<feColorMatrix in="SourceAlpha" type="matrix" values="0 0 0 0 0 0 0 0 0 0 0 0 0 0 0 0 0 0 127 0" result="hardAlpha"/>
<feOffset dx="1.56719" dy="1.56719"/>
<feGaussianBlur stdDeviation="0.783596"/>
<feComposite in2="hardAlpha" operator="out"/>
<feColorMatrix type="matrix" values="0 0 0 0 0 0 0 0 0 0 0 0 0 0 0 0 0 0 0.25 0"/>
<feBlend mode="normal" in2="BackgroundImageFix" result="effect1_dropShadow_2337_1072"/>
<feBlend mode="normal" in="SourceGraphic" in2="effect1_dropShadow_2337_1072" result="shape"/>
</filter>
<clipPath id="clip0_2337_1072">
<rect x="14" y="249.564" width="240.564" height="425.884" rx="10.2464" transform="rotate(-90 14 249.564)" fill="white"/>
</clipPath>
</defs>
</svg>
