<svg width="426" height="241" viewBox="0 0 426 241" fill="none" xmlns="http://www.w3.org/2000/svg">
<g clip-path="url(#clip0_2337_1077)">
<rect y="240.563" width="240.564" height="425.884" rx="10.2464" transform="rotate(-90 0 240.563)" fill="white"/>
<path d="M233.997 126.888C232.401 126.888 232.201 126.894 231.574 126.923C230.948 126.952 230.521 127.051 230.147 127.196C229.761 127.346 229.433 127.547 229.107 127.874C228.78 128.201 228.579 128.529 228.429 128.915C228.283 129.289 228.184 129.716 228.155 130.342C228.127 130.968 228.12 131.169 228.12 132.765C228.12 134.361 228.127 134.561 228.155 135.188C228.184 135.813 228.283 136.24 228.429 136.614C228.579 137.001 228.78 137.328 229.107 137.655C229.433 137.982 229.761 138.183 230.147 138.333C230.521 138.478 230.948 138.578 231.574 138.606C232.201 138.635 232.401 138.642 233.997 138.642C235.593 138.642 235.793 138.635 236.42 138.606C237.046 138.578 237.473 138.478 237.847 138.333C238.233 138.183 238.561 137.982 238.888 137.655C239.214 137.328 239.415 137.001 239.566 136.614C239.711 136.24 239.81 135.813 239.839 135.188C239.867 134.561 239.874 134.361 239.874 132.765C239.874 131.169 239.867 130.968 239.839 130.342C239.81 129.716 239.711 129.289 239.566 128.915C239.415 128.529 239.214 128.201 238.888 127.874C238.561 127.547 238.233 127.346 237.847 127.196C237.473 127.051 237.046 126.952 236.42 126.923C235.793 126.894 235.593 126.888 233.997 126.888ZM233.997 127.947C235.566 127.947 235.752 127.953 236.372 127.981C236.945 128.007 237.256 128.103 237.463 128.183C237.737 128.29 237.933 128.417 238.139 128.623C238.345 128.828 238.472 129.024 238.579 129.299C238.659 129.506 238.755 129.817 238.781 130.39C238.809 131.01 238.815 131.195 238.815 132.765C238.815 134.334 238.809 134.52 238.781 135.139C238.755 135.712 238.659 136.024 238.579 136.231C238.472 136.505 238.345 136.701 238.139 136.906C237.933 137.112 237.737 137.239 237.463 137.346C237.256 137.427 236.945 137.522 236.372 137.548C235.752 137.577 235.566 137.583 233.997 137.583C232.428 137.583 232.242 137.577 231.622 137.548C231.049 137.522 230.738 137.427 230.531 137.346C230.257 137.239 230.061 137.112 229.855 136.906C229.65 136.701 229.522 136.505 229.416 136.231C229.335 136.024 229.239 135.712 229.213 135.139C229.185 134.52 229.179 134.334 229.179 132.765C229.179 131.195 229.185 131.01 229.213 130.39C229.239 129.817 229.335 129.506 229.416 129.299C229.522 129.024 229.65 128.828 229.855 128.623C230.061 128.417 230.257 128.29 230.531 128.183C230.738 128.103 231.049 128.007 231.622 127.981C232.242 127.953 232.428 127.947 233.997 127.947" fill="#7E92F7"/>
<path d="M233.997 134.724C232.915 134.724 232.038 133.847 232.038 132.765C232.038 131.683 232.915 130.806 233.997 130.806C235.079 130.806 235.956 131.683 235.956 132.765C235.956 133.847 235.079 134.724 233.997 134.724ZM233.997 129.747C232.331 129.747 230.979 131.098 230.979 132.765C230.979 134.432 232.331 135.783 233.997 135.783C235.664 135.783 237.015 134.432 237.015 132.765C237.015 131.098 235.664 129.747 233.997 129.747ZM237.84 129.628C237.84 130.018 237.524 130.333 237.135 130.333C236.745 130.333 236.429 130.018 236.429 129.628C236.429 129.239 236.745 128.923 237.135 128.923C237.524 128.923 237.84 129.239 237.84 129.628Z" fill="#7E92F7"/>
<path d="M324.984 138.31L323.986 138.31L325.061 135.688L322.999 130.872L323.997 130.872L325.544 134.602L327.025 130.872L328.012 130.872L324.984 138.31Z" fill="black"/>
<path d="M320.276 135.984L320.276 131.673L319.344 131.673L319.344 130.861L320.276 130.861L320.276 129.095L321.198 129.095L321.198 130.861L322.405 130.861L322.405 131.673L321.198 131.673L321.198 135.984L320.276 135.984Z" fill="black"/>
<path d="M315.751 135.984L315.751 130.872L316.661 130.872L316.661 131.717C317.001 131.168 317.692 130.795 318.373 130.828L318.373 131.706C317.44 131.673 316.661 132.485 316.661 133.384L316.661 135.984L315.751 135.984Z" fill="black"/>
<path d="M312.215 136.028C310.778 136.028 309.769 134.953 309.769 133.45C309.769 131.936 310.778 130.872 312.215 130.872C313.795 130.872 314.278 132.145 314.321 132.265C314.629 133.055 314.53 133.812 314.53 133.845L310.69 133.845C310.822 134.657 311.458 135.227 312.215 135.227C313.224 135.227 313.597 134.591 313.674 134.47L314.398 134.843C314.146 135.414 313.422 136.028 312.215 136.028ZM310.69 133.066L313.641 133.055C313.543 132.276 313.159 131.673 312.215 131.673C311.436 131.673 310.822 132.243 310.69 133.066Z" fill="black"/>
<path d="M309.32 130.872L307.806 135.984L306.972 135.984L305.853 132.408L304.756 135.984L303.922 135.984L302.375 130.872L303.319 130.872L304.35 134.426L305.381 130.872L306.303 130.872L307.378 134.437L308.376 130.872L309.32 130.872Z" fill="black"/>
<path d="M298.567 135.161C299.412 135.161 300.125 134.437 300.125 133.45C300.125 132.474 299.412 131.662 298.567 131.662C297.646 131.662 297.01 132.397 297.01 133.45C297.01 134.47 297.646 135.161 298.567 135.161ZM296.099 133.45C296.099 131.936 297.108 130.872 298.535 130.872C299.05 130.872 299.763 131.146 300.136 131.728L300.136 130.872L301.047 130.872L301.047 138.321L300.136 138.321L300.136 135.194C299.763 135.743 299.05 136.05 298.535 136.05C297.108 136.05 296.099 134.975 296.099 133.45Z" fill="black"/>
<path d="M289.788 136.347L294.911 136.347L294.911 137.235L289.788 137.235L289.788 136.347Z" fill="black"/>
<path d="M287.562 133.044C287.562 132.221 287.079 131.684 286.355 131.684C285.543 131.684 284.973 132.309 284.973 133.044L284.973 135.984L284.062 135.984L284.062 130.872L284.973 130.872L284.973 131.618C285.324 131.179 285.894 130.872 286.399 130.872C287.518 130.872 288.472 131.64 288.472 132.978L288.472 135.984L287.562 135.984L287.562 133.044Z" fill="black"/>
<path d="M281.503 130.861L282.413 130.861L282.413 135.984L281.503 135.984L281.503 130.861ZM281.404 128.876C281.404 128.558 281.634 128.327 281.964 128.327C282.282 128.327 282.512 128.558 282.512 128.876C282.512 129.205 282.282 129.435 281.964 129.435C281.634 129.435 281.404 129.205 281.404 128.876Z" fill="black"/>
<path d="M277.536 135.984L277.536 130.872L278.447 130.872L278.447 131.717C278.787 131.168 279.478 130.795 280.158 130.828L280.158 131.706C279.226 131.673 278.447 132.485 278.447 133.384L278.447 135.984L277.536 135.984Z" fill="black"/>
<path d="M275.413 133.044C275.413 132.221 274.93 131.684 274.206 131.684C273.394 131.684 272.824 132.309 272.824 133.044L272.824 135.984L271.913 135.984L271.913 130.872L272.824 130.872L272.824 131.618C273.175 131.179 273.745 130.872 274.25 130.872C275.369 130.872 276.323 131.64 276.323 132.978L276.323 135.984L275.413 135.984L275.413 133.044Z" fill="black"/>
<path d="M266.857 133.845C266.857 134.657 267.351 135.249 268.064 135.249C268.876 135.249 269.435 134.734 269.435 133.922L269.435 130.872L270.357 130.872L270.357 135.984L269.435 135.984L269.435 135.337C269.095 135.776 268.525 136.061 268.009 136.061C266.802 136.061 265.936 135.151 265.936 133.922L265.936 130.872L266.857 130.872L266.857 133.845Z" fill="black"/>
<path d="M261.234 134.35C261.52 134.964 262.123 135.227 262.507 135.227C263.121 135.227 263.56 134.964 263.56 134.525C263.56 134.108 262.99 133.944 262.419 133.746C261.717 133.505 260.73 133.198 260.73 132.222C260.73 131.355 261.53 130.817 262.551 130.817C263.154 130.817 264.119 131.168 264.361 132.079L263.56 132.353C263.395 131.75 262.847 131.629 262.551 131.629C262.024 131.629 261.64 131.849 261.64 132.222C261.64 132.638 262.167 132.781 262.781 132.99C263.516 133.242 264.471 133.549 264.471 134.525C264.471 135.436 263.637 136.028 262.507 136.028C261.728 136.028 260.916 135.589 260.499 134.789L261.234 134.35Z" fill="black"/>
<path d="M253.96 133.944C254.761 133.944 255.452 133.22 255.452 132.276C255.452 131.322 254.761 130.62 253.96 130.62C253.083 130.62 252.458 131.311 252.458 132.276C252.458 133.264 253.083 133.944 253.96 133.944ZM249.276 132.101C249.276 129.402 251.47 127.208 254.169 127.208C256.846 127.208 259.04 129.402 259.04 132.101C259.04 132.913 258.733 133.505 258.338 133.823C257.943 134.163 257.438 134.262 257.186 134.262C256.681 134.262 256.155 134.021 255.869 133.681C255.43 134.339 254.75 134.778 253.971 134.778C252.6 134.778 251.635 133.735 251.635 132.276C251.635 130.817 252.6 129.797 253.971 129.797C254.509 129.797 255.014 130.005 255.441 130.389L255.441 129.852L256.286 129.852L256.286 132.627C256.286 132.956 256.571 133.406 257.164 133.406C257.317 133.406 257.548 133.362 257.745 133.198C257.943 133.044 258.173 132.715 258.173 132.101C258.173 129.885 256.363 128.097 254.169 128.097C251.942 128.097 250.154 129.896 250.154 132.101C250.154 134.306 251.942 136.105 254.169 136.105C254.915 136.105 255.617 135.886 256.198 135.545L256.648 136.302C255.924 136.73 255.079 136.983 254.169 136.983C251.47 136.983 249.276 134.799 249.276 132.101Z" fill="black"/>
<mask id="mask0_2337_1077" style="mask-type:alpha" maskUnits="userSpaceOnUse" x="228" y="143" width="12" height="13">
<path d="M228.119 143.406L239.873 143.406L239.873 155.16L228.119 155.16L228.119 143.406Z" fill="#D9D9D9"/>
</mask>
<g mask="url(#mask0_2337_1077)">
<path d="M229.295 154.18C228.971 154.18 228.695 154.065 228.464 153.835C228.234 153.605 228.119 153.328 228.119 153.005L228.119 145.953C228.119 145.63 228.234 145.353 228.464 145.123C228.695 144.892 228.971 144.777 229.295 144.777L238.698 144.777C239.021 144.777 239.298 144.892 239.528 145.123C239.758 145.353 239.873 145.63 239.873 145.953L239.873 153.005C239.873 153.328 239.758 153.605 239.528 153.835C239.298 154.065 239.021 154.18 238.698 154.18L229.295 154.18ZM233.996 150.067L229.295 147.128L229.295 153.005L238.698 153.005L238.698 147.128L233.996 150.067ZM233.996 148.891L238.698 145.953L229.295 145.953L233.996 148.891ZM229.295 147.128L229.295 145.953L229.295 153.005L229.295 147.128Z" fill="#7E92F7"/>
</g>
<path d="M252.056 153.433C250.766 153.433 249.846 152.453 249.846 151.083C249.846 149.703 250.766 148.723 252.056 148.723C252.556 148.723 253.106 148.973 253.506 149.513L253.506 148.713L254.336 148.713L254.336 153.373L253.506 153.373L253.506 152.623C253.096 153.213 252.556 153.433 252.056 153.433ZM252.086 152.703C252.836 152.703 253.506 152.023 253.516 151.083C253.506 150.143 252.836 149.453 252.086 149.453C251.256 149.453 250.676 150.113 250.676 151.083C250.676 152.033 251.256 152.703 252.086 152.703ZM257.789 153.433C256.489 153.433 255.569 152.453 255.569 151.063C255.569 149.683 256.489 148.703 257.789 148.703C258.289 148.703 258.879 148.933 259.269 149.523L259.269 146.313L260.099 146.313L260.099 153.373L259.269 153.373L259.269 152.613C258.869 153.183 258.289 153.433 257.789 153.433ZM257.829 152.703C258.599 152.703 259.269 151.973 259.269 151.063C259.269 150.173 258.599 149.433 257.829 149.433C256.979 149.433 256.399 150.103 256.399 151.063C256.399 152.033 256.979 152.703 257.829 152.703ZM267.588 150.593C267.588 149.913 267.188 149.453 266.608 149.453C265.938 149.453 265.478 149.893 265.478 150.513L265.478 153.373L264.638 153.373L264.638 150.593C264.638 149.913 264.248 149.453 263.678 149.453C262.998 149.453 262.528 150.023 262.528 150.683L262.528 153.373L261.698 153.373L261.698 148.713L262.528 148.713L262.528 149.383C262.808 148.983 263.268 148.713 263.708 148.713C264.288 148.713 264.858 149.063 265.128 149.573C265.438 149.063 266.048 148.713 266.628 148.713C267.678 148.713 268.428 149.463 268.428 150.533L268.428 153.373L267.588 153.373L267.588 150.593ZM269.881 148.703L270.711 148.703L270.711 153.373L269.881 153.373L269.881 148.703ZM270.301 146.393C270.591 146.393 270.801 146.603 270.801 146.893C270.801 147.193 270.591 147.403 270.301 147.403C270.001 147.403 269.791 147.193 269.791 146.893C269.791 146.603 270.001 146.393 270.301 146.393ZM275.404 150.693C275.404 149.943 274.964 149.453 274.304 149.453C273.564 149.453 273.044 150.023 273.044 150.693L273.044 153.373L272.214 153.373L272.214 148.713L273.044 148.713L273.044 149.393C273.364 148.993 273.884 148.713 274.344 148.713C275.364 148.713 276.234 149.413 276.234 150.633L276.234 153.373L275.404 153.373L275.404 150.693ZM281.913 151.513C282.643 151.513 283.273 150.853 283.273 149.993C283.273 149.123 282.643 148.483 281.913 148.483C281.113 148.483 280.543 149.113 280.543 149.993C280.543 150.893 281.113 151.513 281.913 151.513ZM282.103 145.373C284.543 145.373 286.543 147.373 286.543 149.833C286.543 150.573 286.263 151.113 285.903 151.403C285.543 151.713 285.083 151.803 284.853 151.803C284.393 151.803 283.913 151.583 283.653 151.273C283.253 151.873 282.633 152.273 281.923 152.273C280.673 152.273 279.793 151.323 279.793 149.993C279.793 148.663 280.673 147.733 281.923 147.733C282.413 147.733 282.873 147.923 283.263 148.273L283.263 147.783L284.033 147.783L284.033 150.313C284.033 150.613 284.293 151.023 284.833 151.023C284.973 151.023 285.183 150.983 285.363 150.833C285.543 150.693 285.753 150.393 285.753 149.833C285.753 147.813 284.103 146.183 282.103 146.183C280.073 146.183 278.443 147.823 278.443 149.833C278.443 151.843 280.073 153.483 282.103 153.483C282.783 153.483 283.423 153.283 283.953 152.973L284.363 153.663C283.703 154.053 282.933 154.283 282.103 154.283C279.643 154.283 277.643 152.293 277.643 149.833C277.643 147.373 279.643 145.373 282.103 145.373ZM288.543 151.883C288.803 152.443 289.353 152.683 289.703 152.683C290.263 152.683 290.663 152.443 290.663 152.043C290.663 151.663 290.143 151.513 289.623 151.333C288.983 151.113 288.083 150.833 288.083 149.943C288.083 149.153 288.813 148.663 289.743 148.663C290.293 148.663 291.173 148.983 291.393 149.813L290.663 150.063C290.513 149.513 290.013 149.403 289.743 149.403C289.263 149.403 288.913 149.603 288.913 149.943C288.913 150.323 289.393 150.453 289.953 150.643C290.623 150.873 291.493 151.153 291.493 152.043C291.493 152.873 290.733 153.413 289.703 153.413C288.993 153.413 288.253 153.013 287.873 152.283L288.543 151.883ZM293.669 151.423C293.669 152.163 294.119 152.703 294.769 152.703C295.509 152.703 296.019 152.233 296.019 151.493L296.019 148.713L296.859 148.713L296.859 153.373L296.019 153.373L296.019 152.783C295.709 153.183 295.189 153.443 294.719 153.443C293.619 153.443 292.829 152.613 292.829 151.493L292.829 148.713L293.669 148.713L293.669 151.423ZM301.468 150.693C301.468 149.943 301.028 149.453 300.368 149.453C299.628 149.453 299.108 150.023 299.108 150.693L299.108 153.373L298.278 153.373L298.278 148.713L299.108 148.713L299.108 149.393C299.428 148.993 299.948 148.713 300.408 148.713C301.428 148.713 302.298 149.413 302.298 150.633L302.298 153.373L301.468 153.373L301.468 150.693ZM303.404 153.373L303.404 148.713L304.234 148.713L304.234 149.483C304.544 148.983 305.174 148.643 305.794 148.673L305.794 149.473C304.944 149.443 304.234 150.183 304.234 151.003L304.234 153.373L303.404 153.373ZM307.02 148.703L307.85 148.703L307.85 153.373L307.02 153.373L307.02 148.703ZM307.44 146.393C307.73 146.393 307.94 146.603 307.94 146.893C307.94 147.193 307.73 147.403 307.44 147.403C307.14 147.403 306.93 147.193 306.93 146.893C306.93 146.603 307.14 146.393 307.44 146.393ZM312.543 150.693C312.543 149.943 312.103 149.453 311.443 149.453C310.703 149.453 310.183 150.023 310.183 150.693L310.183 153.373L309.353 153.373L309.353 148.713L310.183 148.713L310.183 149.393C310.503 148.993 311.023 148.713 311.483 148.713C312.503 148.713 313.373 149.413 313.373 150.633L313.373 153.373L312.543 153.373L312.543 150.693ZM315.079 153.373L315.079 149.443L314.229 149.443L314.229 148.703L315.079 148.703L315.079 147.093L315.919 147.093L315.919 148.703L317.019 148.703L317.019 149.443L315.919 149.443L315.919 153.373L315.079 153.373ZM318.247 149.243L322.517 149.243L322.517 150.073L318.247 150.073L318.247 149.243ZM326.022 152.623C326.792 152.623 327.442 151.963 327.442 151.063C327.442 150.173 326.792 149.433 326.022 149.433C325.182 149.433 324.602 150.103 324.602 151.063C324.602 151.993 325.182 152.623 326.022 152.623ZM325.992 148.713C326.462 148.713 327.112 148.963 327.452 149.493L327.452 148.713L328.282 148.713L328.282 155.503L327.452 155.503L327.452 152.653C327.112 153.153 326.462 153.433 325.992 153.433C324.692 153.433 323.772 152.453 323.772 151.063C323.772 149.683 324.692 148.713 325.992 148.713ZM331.471 153.413C330.161 153.413 329.241 152.433 329.241 151.063C329.241 149.683 330.161 148.713 331.471 148.713C332.911 148.713 333.351 149.873 333.391 149.983C333.671 150.703 333.581 151.393 333.581 151.423L330.081 151.423C330.201 152.163 330.781 152.683 331.471 152.683C332.391 152.683 332.731 152.103 332.801 151.993L333.461 152.333C333.231 152.853 332.571 153.413 331.471 153.413ZM332.771 150.703C332.681 149.993 332.331 149.443 331.471 149.443C330.761 149.443 330.201 149.963 330.081 150.713L332.771 150.703ZM334.693 153.373L334.693 148.713L335.523 148.713L335.523 149.483C335.833 148.983 336.463 148.643 337.083 148.673L337.083 149.473C336.233 149.443 335.523 150.183 335.523 151.003L335.523 153.373L334.693 153.373ZM338.819 153.373L338.819 149.443L337.969 149.443L337.969 148.703L338.819 148.703L338.819 147.093L339.659 147.093L339.659 148.703L340.759 148.703L340.759 149.443L339.659 149.443L339.659 153.373L338.819 153.373ZM343.11 155.493L342.2 155.493L343.18 153.103L341.3 148.713L342.21 148.713L343.62 152.113L344.97 148.713L345.87 148.713L343.11 155.493ZM347.486 152.423C347.796 152.423 348.016 152.643 348.016 152.963C348.016 153.283 347.796 153.513 347.486 153.513C347.166 153.513 346.936 153.283 346.936 152.963C346.936 152.643 347.166 152.423 347.486 152.423ZM350.662 146.313L350.662 150.923L352.562 148.713L353.682 148.713L351.882 150.783L353.712 153.373L352.692 153.373L351.292 151.413L350.662 152.163L350.662 153.373L349.832 153.373L349.832 146.313L350.662 146.313ZM354.898 153.373L354.898 148.713L355.728 148.713L355.728 149.483C356.038 148.983 356.668 148.643 357.288 148.673L357.288 149.473C356.438 149.443 355.728 150.183 355.728 151.003L355.728 153.373L354.898 153.373Z" fill="black"/>
<mask id="mask1_2337_1077" style="mask-type:alpha" maskUnits="userSpaceOnUse" x="228" y="159" width="12" height="13">
<path d="M228.119 159.925L239.873 159.925L239.873 171.679L228.119 171.679L228.119 159.925Z" fill="#D9D9D9"/>
</mask>
<g mask="url(#mask1_2337_1077)">
<path d="M233.997 165.802C234.32 165.802 234.597 165.687 234.827 165.457C235.057 165.226 235.172 164.95 235.172 164.626C235.172 164.303 235.057 164.026 234.827 163.796C234.597 163.566 234.32 163.451 233.997 163.451C233.674 163.451 233.397 163.566 233.167 163.796C232.937 164.026 232.822 164.303 232.822 164.626C232.822 164.95 232.937 165.226 233.167 165.457C233.397 165.687 233.674 165.802 233.997 165.802ZM233.997 170.121C235.192 169.024 236.078 168.028 236.656 167.131C237.234 166.235 237.523 165.439 237.523 164.744C237.523 163.676 237.183 162.802 236.502 162.121C235.821 161.441 234.986 161.1 233.997 161.1C233.008 161.1 232.173 161.441 231.492 162.121C230.811 162.802 230.471 163.676 230.471 164.744C230.471 165.439 230.76 166.235 231.338 167.131C231.916 168.028 232.802 169.024 233.997 170.121ZM233.997 171.679C232.42 170.337 231.242 169.09 230.463 167.94C229.685 166.789 229.295 165.723 229.295 164.744C229.295 163.275 229.768 162.104 230.713 161.232C231.658 160.361 232.753 159.925 233.997 159.925C235.241 159.925 236.336 160.361 237.281 161.232C238.226 162.104 238.699 163.275 238.699 164.744C238.699 165.723 238.309 166.789 237.531 167.94C236.752 169.09 235.574 170.337 233.997 171.679Z" fill="#7E92F7"/>
</g>
<path d="M385.51 168.087C385.027 168.087 384.38 167.878 383.908 167.187L383.908 168.021L382.998 168.021L382.998 160.254L383.908 160.254L383.908 163.786C384.38 163.095 385.027 162.898 385.521 162.898C386.947 162.898 387.967 163.973 387.967 165.487C387.967 167.012 386.947 168.087 385.51 168.087ZM383.908 165.487C383.908 166.485 384.621 167.286 385.477 167.286C386.409 167.286 387.057 166.551 387.057 165.487C387.057 164.434 386.409 163.71 385.477 163.71C384.621 163.71 383.908 164.51 383.908 165.487Z" fill="black"/>
<path d="M377.93 165.859C377.93 166.671 378.423 167.263 379.137 167.263C379.948 167.263 380.508 166.747 380.508 165.935L380.508 162.886L381.429 162.886L381.429 167.998L380.508 167.998L380.508 167.351C380.168 167.789 379.597 168.075 379.082 168.075C377.875 168.075 377.008 167.164 377.008 165.935L377.008 162.886L377.93 162.886L377.93 165.859Z" fill="black"/>
<path d="M374.521 160.254L375.432 160.254L375.432 167.999L374.521 167.999L374.521 160.254Z" fill="black"/>
<path d="M371.605 167.176C372.055 167.176 372.581 166.957 372.877 166.617L373.536 167.231C373.086 167.714 372.285 168.054 371.649 168.054C370.124 168.054 369.049 166.968 369.049 165.465C369.049 163.951 370.124 162.876 371.649 162.876C372.296 162.876 373.075 163.227 373.536 163.71L372.877 164.313C372.581 163.973 372.055 163.754 371.605 163.754C370.64 163.754 369.959 164.445 369.959 165.465C369.959 166.485 370.64 167.176 371.605 167.176Z" fill="black"/>
<path d="M363.396 167.999L363.396 163.687L362.463 163.687L362.463 162.876L363.396 162.876L363.396 161.109L364.317 161.109L364.317 162.876L365.524 162.876L365.524 163.687L364.317 163.687L364.317 167.999L363.396 167.999Z" fill="black"/>
<path d="M360.614 165.059C360.614 164.236 360.131 163.699 359.407 163.699C358.595 163.699 358.025 164.324 358.025 165.059L358.025 167.999L357.114 167.999L357.114 162.887L358.025 162.887L358.025 163.633C358.376 163.194 358.946 162.887 359.451 162.887C360.57 162.887 361.524 163.655 361.524 164.993L361.524 167.999L360.614 167.999L360.614 165.059Z" fill="black"/>
<path d="M353.524 168.043C352.087 168.043 351.078 166.968 351.078 165.465C351.078 163.951 352.087 162.887 353.524 162.887C355.104 162.887 355.586 164.159 355.63 164.28C355.937 165.07 355.839 165.827 355.839 165.86L351.999 165.86C352.131 166.671 352.767 167.242 353.524 167.242C354.533 167.242 354.906 166.606 354.983 166.485L355.707 166.858C355.455 167.428 354.731 168.043 353.524 168.043ZM351.999 165.081L354.95 165.07C354.851 164.291 354.467 163.688 353.524 163.688C352.745 163.688 352.131 164.258 351.999 165.081Z" fill="black"/>
<path d="M348.825 164.949C348.825 164.203 348.386 163.699 347.75 163.699C347.015 163.699 346.51 164.181 346.51 164.861L346.51 167.999L345.589 167.999L345.589 164.949C345.589 164.203 345.161 163.699 344.536 163.699C343.79 163.699 343.274 164.324 343.274 165.048L343.274 167.999L342.364 167.999L342.364 162.887L343.274 162.887L343.274 163.622C343.581 163.183 344.086 162.887 344.569 162.887C345.205 162.887 345.83 163.271 346.126 163.83C346.466 163.271 347.136 162.887 347.772 162.887C348.924 162.887 349.747 163.709 349.747 164.883L349.747 167.999L348.825 167.999L348.825 164.949Z" fill="black"/>
<path d="M338.575 167.253C339.508 167.253 340.133 166.529 340.133 165.465C340.133 164.412 339.508 163.677 338.575 163.677C337.731 163.677 337.018 164.489 337.018 165.465C337.018 166.452 337.731 167.253 338.575 167.253ZM336.096 170.336L336.096 162.876L337.007 162.876L337.007 163.743C337.391 163.161 338.093 162.876 338.608 162.876C340.035 162.876 341.044 163.951 341.044 165.465C341.044 166.99 340.035 168.065 338.608 168.065C338.071 168.065 337.391 167.736 337.007 167.187L337.007 170.336L336.096 170.336Z" fill="black"/>
<path d="M332.344 167.253C333.254 167.253 333.879 166.529 333.879 165.476C333.879 164.423 333.254 163.688 332.344 163.688C331.444 163.688 330.819 164.412 330.819 165.476C330.819 166.54 331.433 167.253 332.344 167.253ZM329.908 165.476C329.908 163.962 330.917 162.876 332.344 162.876C333.781 162.876 334.801 163.962 334.801 165.476C334.801 166.979 333.781 168.065 332.344 168.065C330.917 168.065 329.908 166.979 329.908 165.476Z" fill="black"/>
<path d="M327.844 160.254L328.754 160.254L328.754 167.999L327.844 167.999L327.844 160.254Z" fill="black"/>
<path d="M324.341 168.043C322.904 168.043 321.895 166.968 321.895 165.465C321.895 163.951 322.904 162.887 324.341 162.887C325.921 162.887 326.403 164.159 326.447 164.28C326.754 165.07 326.656 165.827 326.656 165.86L322.816 165.86C322.948 166.671 323.584 167.242 324.341 167.242C325.35 167.242 325.723 166.606 325.8 166.485L326.524 166.858C326.272 167.428 325.548 168.043 324.341 168.043ZM322.816 165.081L325.767 165.07C325.668 164.291 325.284 163.688 324.341 163.688C323.562 163.688 322.948 164.258 322.816 165.081Z" fill="black"/>
<path d="M321.412 162.887L319.273 167.999L318.439 167.999L316.311 162.887L317.309 162.887L318.856 166.759L320.402 162.887L321.412 162.887Z" fill="black"/>
<path d="M313.478 168.043C312.041 168.043 311.032 166.968 311.032 165.465C311.032 163.951 312.041 162.887 313.478 162.887C315.058 162.887 315.541 164.159 315.584 164.28C315.892 165.07 315.793 165.827 315.793 165.86L311.953 165.86C312.085 166.671 312.721 167.242 313.478 167.242C314.487 167.242 314.86 166.606 314.937 166.485L315.661 166.858C315.409 167.428 314.685 168.043 313.478 168.043ZM311.953 165.081L314.904 165.07C314.806 164.291 314.422 163.688 313.478 163.688C312.699 163.688 312.085 164.258 311.953 165.081Z" fill="black"/>
<path d="M307.243 168.065C305.817 168.065 304.807 166.99 304.807 165.465C304.807 163.951 305.817 162.876 307.243 162.876C307.791 162.876 308.439 163.128 308.866 163.775L308.866 160.254L309.777 160.254L309.777 167.999L308.866 167.999L308.866 167.165C308.428 167.791 307.791 168.065 307.243 168.065ZM305.718 165.465C305.718 166.529 306.354 167.264 307.287 167.264C308.131 167.264 308.866 166.463 308.866 165.465C308.866 164.488 308.131 163.677 307.287 163.677C306.354 163.677 305.718 164.412 305.718 165.465Z" fill="black"/>
<path d="M298.572 168.087C298.089 168.087 297.442 167.878 296.97 167.187L296.97 168.021L296.06 168.021L296.06 160.254L296.97 160.254L296.97 163.786C297.442 163.095 298.089 162.898 298.583 162.898C300.009 162.898 301.029 163.973 301.029 165.487C301.029 167.012 300.009 168.087 298.572 168.087ZM296.97 165.487C296.97 166.485 297.683 167.286 298.539 167.286C299.471 167.286 300.119 166.551 300.119 165.487C300.119 164.434 299.471 163.71 298.539 163.71C297.683 163.71 296.97 164.51 296.97 165.487Z" fill="black"/>
<path d="M292.459 168.043C291.021 168.043 290.012 166.968 290.012 165.465C290.012 163.951 291.021 162.887 292.459 162.887C294.038 162.887 294.521 164.159 294.565 164.28C294.872 165.07 294.773 165.827 294.773 165.86L290.934 165.86C291.065 166.671 291.702 167.242 292.459 167.242C293.468 167.242 293.841 166.606 293.918 166.485L294.642 166.858C294.389 167.428 293.665 168.043 292.459 168.043ZM290.934 165.081L293.885 165.07C293.786 164.291 293.402 163.688 292.459 163.688C291.68 163.688 291.065 164.258 290.934 165.081Z" fill="black"/>
<path d="M289.563 162.887L288.049 167.999L287.215 167.999L286.096 164.423L284.999 167.999L284.165 167.999L282.618 162.887L283.562 162.887L284.593 166.441L285.624 162.887L286.546 162.887L287.621 166.452L288.619 162.887L289.563 162.887Z" fill="black"/>
<path d="M277.886 165.059C277.886 164.236 277.404 163.699 276.68 163.699C275.868 163.699 275.297 164.324 275.297 165.059L275.297 167.999L274.387 167.999L274.387 162.887L275.297 162.887L275.297 163.633C275.648 163.194 276.219 162.887 276.723 162.887C277.842 162.887 278.797 163.655 278.797 164.993L278.797 167.999L277.886 167.999L277.886 165.059Z" fill="black"/>
<path d="M271.827 162.875L272.738 162.875L272.738 167.998L271.827 167.998L271.827 162.875ZM271.729 160.889C271.729 160.571 271.959 160.341 272.288 160.341C272.606 160.341 272.837 160.571 272.837 160.889C272.837 161.218 272.606 161.449 272.288 161.449C271.959 161.449 271.729 161.218 271.729 160.889Z" fill="black"/>
<path d="M267.861 167.999L267.861 162.887L268.771 162.887L268.771 163.731C269.111 163.183 269.802 162.81 270.483 162.843L270.483 163.72C269.55 163.688 268.771 164.499 268.771 165.399L268.771 167.999L267.861 167.999Z" fill="black"/>
<path d="M265.737 165.059C265.737 164.236 265.254 163.699 264.53 163.699C263.719 163.699 263.148 164.324 263.148 165.059L263.148 167.999L262.238 167.999L262.238 162.887L263.148 162.887L263.148 163.633C263.499 163.194 264.07 162.887 264.574 162.887C265.693 162.887 266.648 163.655 266.648 164.993L266.648 167.999L265.737 167.999L265.737 165.059Z" fill="black"/>
<path d="M257.181 165.86C257.181 166.671 257.675 167.264 258.388 167.264C259.2 167.264 259.759 166.748 259.759 165.936L259.759 162.887L260.681 162.887L260.681 167.999L259.759 167.999L259.759 167.352C259.419 167.79 258.849 168.076 258.333 168.076C257.126 168.076 256.26 167.165 256.26 165.936L256.26 162.887L257.181 162.887L257.181 165.86Z" fill="black"/>
<path d="M250.055 165.849C250.472 166.683 251.174 167.275 251.997 167.275C253.072 167.297 253.741 166.748 253.741 165.893C253.741 163.852 249.638 164.708 249.638 161.932C249.638 160.649 250.713 159.914 252.139 159.925C253.236 159.947 254.125 160.528 254.509 161.691L253.686 161.976C253.445 161.197 252.852 160.748 252.128 160.737C251.207 160.726 250.548 161.165 250.548 161.932C250.548 163.951 254.651 163.128 254.651 165.904C254.651 167.22 253.62 168.109 251.986 168.087C250.823 168.065 249.934 167.418 249.276 166.266L250.055 165.849Z" fill="black"/>
<path d="M241.439 89.1839C241.859 88.4439 242.159 87.2839 242.159 86.3439C242.159 82.9439 240.059 80.6639 236.939 80.6639C233.819 80.6639 231.739 82.9439 231.739 86.3439C231.739 89.7239 233.819 92.0039 236.939 92.0039C238.119 92.0039 239.419 91.5239 240.179 90.8239L238.159 88.6839L239.659 87.2639L241.439 89.1839ZM244.519 92.4239L243.019 93.8439L241.499 92.2239C240.419 93.1839 238.539 93.8639 236.939 93.8639C232.639 93.8639 229.599 90.7639 229.599 86.3439C229.599 81.9239 232.639 78.8039 236.939 78.8039C241.259 78.8039 244.299 81.9239 244.299 86.3439C244.259 87.8039 243.719 89.6239 242.939 90.7639L244.519 92.4239ZM264.581 78.9439L260.481 93.7039L258.501 93.7039L255.041 82.6039L251.781 93.7039L249.781 93.7039L245.281 78.9439L247.501 78.9439L250.781 89.9039L253.901 78.9639L256.161 78.9639L259.361 89.9039L262.361 78.9439L264.581 78.9439ZM276.52 78.9439L276.52 80.8039L269.1 80.8039L269.1 85.1839L275.48 85.1839L275.48 87.0239L269.1 87.0239L269.1 91.8439L276.52 91.8439L276.52 93.7039L266.98 93.7039L266.98 78.9439L276.52 78.9439ZM284.884 86.3039C286.504 86.3039 287.604 85.2439 287.604 83.5439C287.604 81.8439 286.504 80.8039 284.884 80.8039L281.664 80.8039L281.664 86.3039L284.884 86.3039ZM290.424 93.7039L287.864 93.7039L284.124 88.1639L281.664 88.1639L281.664 93.7039L279.544 93.7039L279.544 78.9439L285.144 78.9439C287.844 78.9439 289.724 80.7839 289.724 83.5039C289.744 85.4239 288.704 87.0639 286.484 87.8639L290.424 93.7039ZM302.748 78.9439L302.748 80.8039L298.588 80.8039L298.588 93.7039L296.448 93.7039L296.448 80.8039L292.268 80.8039L292.268 78.9439L302.748 78.9439ZM316.603 78.9439L311.463 87.9439L311.463 93.7039L309.343 93.7039L309.343 87.9439L304.203 78.9439L306.663 78.9439L310.403 85.6039L314.143 78.9439L316.603 78.9439Z" fill="#7E92F7"/>
<path d="M332.826 93.6439L330.506 93.6439L336.206 80.8439L329.526 80.8639L329.526 78.9839L338.326 78.9839L338.526 80.8439L332.826 93.6439ZM352.735 77.3439L354.935 77.3439L354.935 95.1439L352.735 95.1439L352.735 77.3439ZM349.675 79.2039C349.675 84.5439 347.655 89.0239 341.455 92.0239L340.315 90.2839C344.935 88.0639 347.035 85.0439 347.415 80.9839L341.195 80.9839L341.195 79.2039L349.675 79.2039Z" fill="black"/>
<path d="M202.946 120.281C202.946 217.221 124.361 295.807 27.421 295.807C-69.5191 295.807 -148.104 217.221 -148.104 120.281C-148.104 23.3413 -69.5191 -55.2441 27.4209 -55.2441C124.361 -55.2441 202.946 23.3413 202.946 120.281Z" fill="#1E1E1E"/>
<path fill-rule="evenodd" clip-rule="evenodd" d="M84.2826 61.9033L49.1476 61.9033L49.1476 125.669C51.5235 120.651 54.9465 116.2 59.1844 112.614L59.1844 71.9464L84.2795 71.9464C90.9341 71.9464 97.3192 74.5919 102.024 79.3C106.729 84.0081 109.375 90.3932 109.375 97.0509C109.375 103.709 106.732 110.094 102.024 114.802C97.3192 119.51 90.9341 122.155 84.2795 122.155C79.584 122.315 75.0765 124.024 71.4498 127.008C67.8232 129.995 65.2842 134.095 64.2278 138.675C63.1684 143.251 63.6511 148.053 65.5976 152.329C67.5442 156.604 70.848 160.118 74.995 162.325L74.995 143.495C74.9511 140.815 75.8633 138.211 77.5622 136.142C79.2642 134.073 81.6434 132.675 84.2795 132.199C86.0881 132.199 87.8842 132.058 89.649 131.785L113.067 178.643L126.941 178.643L101.479 127.697C104.256 126.139 106.829 124.196 109.121 121.902C115.71 115.31 119.411 106.37 119.411 97.0478C119.411 87.7257 115.71 78.786 109.121 72.194C102.535 65.6052 93.5985 61.9033 84.2826 61.9033ZM62.9521 75.711L84.2826 75.711C89.9405 75.711 95.3664 77.9584 99.3661 81.9613C103.366 85.9641 105.613 91.39 105.613 97.0509C105.613 102.712 103.366 108.138 99.3661 112.141C95.3664 116.143 89.9405 118.391 84.2826 118.391C80.1545 118.391 76.0921 119.41 72.4529 121.356C68.8137 123.303 65.7105 126.118 63.416 129.55C61.1246 132.982 59.711 136.929 59.3066 141.038C58.9023 145.147 59.5166 149.291 61.0964 153.106C62.6762 156.921 65.1713 160.287 68.3623 162.905C71.5533 165.525 75.3398 167.315 79.3865 168.12C83.4332 168.926 87.6178 168.719 91.5673 167.522C95.5168 166.324 99.109 164.168 102.027 161.25L106.516 170.23C102.193 173.919 97.0371 176.505 91.4952 177.765C85.9502 179.026 80.1858 178.919 74.6941 177.458C69.1992 175.998 64.1432 173.227 59.9555 169.381C55.7677 165.534 52.5767 160.729 50.6521 155.379C48.7307 150.028 48.132 144.289 48.9156 138.656C49.6961 133.023 51.8339 127.666 55.1408 123.039C58.4477 118.413 62.8267 114.661 67.9047 112.103C72.9795 109.542 78.6029 108.254 84.2858 108.348C87.2824 108.348 90.1536 107.157 92.2695 105.038C94.3853 102.919 95.5764 100.044 95.5764 97.0478C95.5764 94.0512 94.3853 91.1768 92.2695 89.0579C90.1505 86.9389 87.2793 85.7478 84.2858 85.7478L72.992 85.7478L72.992 105.831C69.4625 106.774 66.0835 108.213 62.9552 110.1L62.9552 75.711L62.9521 75.711ZM117.659 154.291L105.362 129.688C108.143 127.845 110.672 125.651 112.892 123.162C116.051 127.622 118.129 132.76 118.957 138.164C119.784 143.568 119.339 149.091 117.659 154.294L117.659 154.291Z" fill="#7E92F7"/>
</g>
<defs>
<clipPath id="clip0_2337_1077">
<rect y="240.563" width="240.564" height="425.884" rx="10.2464" transform="rotate(-90 0 240.563)" fill="white"/>
</clipPath>
</defs>
</svg>
