<svg width="224" height="334" viewBox="0 0 224 334" fill="none" xmlns="http://www.w3.org/2000/svg">
<path fill-rule="evenodd" clip-rule="evenodd" d="M101.628 0H1.6126V182.143C8.37604 167.809 18.1197 155.094 30.1832 144.852V28.6874H101.619C120.562 28.6874 138.737 36.2442 152.13 49.6926C165.523 63.1409 173.054 81.3794 173.054 100.397C173.054 119.414 165.532 137.653 152.13 151.101C138.737 164.55 120.562 172.106 101.619 172.106C88.2525 172.563 75.4216 177.443 65.0979 185.967C54.7743 194.499 47.5469 206.211 44.5399 219.292C41.524 232.364 42.8981 246.081 48.4392 258.294C53.9802 270.507 63.3848 280.544 75.1896 286.847V233.063C75.0646 225.407 77.6612 217.967 82.4973 212.057C87.3423 206.148 94.1147 202.155 101.619 200.794C106.767 200.794 111.88 200.391 116.903 199.612L183.565 333.459H223.057L150.578 187.936C158.483 183.486 165.809 177.935 172.331 171.381C191.087 152.552 201.625 127.016 201.625 100.388C201.625 73.7599 191.087 48.2242 172.331 29.3947C153.585 10.5742 128.146 0 101.628 0ZM40.9084 39.4407H101.628C117.733 39.4407 133.178 45.8604 144.564 57.2942C155.949 68.7279 162.347 84.2266 162.347 100.397C162.347 116.567 155.949 132.066 144.564 143.5C133.178 154.933 117.733 161.353 101.628 161.353C89.8764 161.353 78.3125 164.263 67.9532 169.823C57.5939 175.383 48.7604 183.424 42.2289 193.228C35.7064 203.032 31.6823 214.305 30.5312 226.043C29.3802 237.781 31.129 249.618 35.6261 260.514C40.1232 271.411 47.2257 281.027 56.309 288.503C65.3924 295.989 76.1711 301.101 87.6903 303.402C99.2096 305.703 111.121 305.112 122.364 301.692C133.607 298.272 143.832 292.112 152.139 283.776L164.917 309.428C152.612 319.966 137.934 327.353 122.159 330.952C106.375 334.552 89.9656 334.247 74.333 330.075C58.6914 325.903 44.299 317.988 32.3782 307.002C20.4574 296.015 11.3741 282.29 5.89552 267.006C0.425876 251.722 -1.27837 235.328 0.952318 219.238C3.17408 203.149 9.25939 187.847 18.6729 174.631C28.0864 161.416 40.5515 150.698 55.0063 143.392C69.4522 136.077 85.4597 132.397 101.637 132.666C110.167 132.666 118.34 129.263 124.363 123.211C130.386 117.158 133.776 108.948 133.776 100.388C133.776 91.8283 130.386 83.6178 124.363 77.5652C118.331 71.5125 110.158 68.1101 101.637 68.1101H69.4879V125.476C59.4409 128.171 49.8222 132.281 40.9173 137.671V39.4407H40.9084ZM196.637 263.899L161.633 193.622C169.548 188.357 176.748 182.09 183.066 174.98C192.06 187.721 197.975 202.396 200.331 217.832C202.687 233.268 201.42 249.045 196.637 263.908V263.899Z" fill="#7E92F7"/>
</svg>
